<svg width="150" height="40" viewBox="0 0 150 40" fill="none" xmlns="http://www.w3.org/2000/svg">
<path d="M27.8003 17.0172C30.6881 17.0172 31.3378 18.2563 31.3378 19.8018C31.3378 21.4399 30.5519 22.6136 27.8123 22.6136C25.0902 22.6136 24.3034 21.5081 24.3034 19.8018C24.3034 18.1227 25.1611 17.0172 27.8003 17.0172Z" fill="white"/>
<path d="M57.9791 17.0172C60.8668 17.0172 61.5165 18.2563 61.5165 19.8018C61.5165 21.4399 60.7297 22.6136 57.9911 22.6136C55.2699 22.6136 54.4822 21.5081 54.4822 19.8018C54.4822 18.1227 55.3398 17.0172 57.9791 17.0172Z" fill="white"/>
<path fill-rule="evenodd" clip-rule="evenodd" d="M2.23322 35.9091V3.67908H148.164V35.9091H2.23322ZM71.7836 34.0909H146.324V5.49726H71.7836V34.0909ZM27.8144 25.3573C32.9411 25.3573 35.0963 23.1727 35.0963 19.7609C35.0963 16.2936 32.6687 14.2327 27.8144 14.2327C23.0347 14.2327 20.5187 16.4709 20.5187 19.7609C20.5187 23.4736 23.158 25.3573 27.8144 25.3573ZM9.99018 14.4782V25.1936H20.3374V22.34H13.7337V14.4782H9.99018ZM46.6767 25.1936L46.5801 24.1554C45.3277 25.0383 43.8034 25.4633 42.2687 25.3573C39.9617 25.3573 38.0402 24.6745 36.9626 23.2963C36.2518 22.2902 35.8929 21.0823 35.9402 19.8563C35.8998 18.6561 36.2711 17.4775 36.9939 16.5118C38.0844 15.1745 40.061 14.2873 43.004 14.2873C46.3896 14.2873 48.3791 15.3109 49.235 17.0309C49.4186 17.436 49.5266 17.8705 49.5534 18.3136H45.9718C45.8815 18.0443 45.7136 17.8071 45.4887 17.6309C44.7752 17.1636 43.9232 16.9475 43.0702 17.0173C42.5699 16.9573 42.0623 17.003 41.5812 17.1513C41.1001 17.2995 40.6563 17.547 40.2791 17.8773C39.8509 18.4564 39.6498 19.1693 39.7132 19.8836C39.6635 20.5652 39.8484 21.2434 40.2377 21.8082C40.6182 22.1584 41.0706 22.4237 41.5641 22.5863C42.0576 22.7487 42.5806 22.8046 43.0979 22.75C44.1251 22.8325 45.145 22.5195 45.9442 21.8763C46.1158 21.6643 46.2341 21.4151 46.2893 21.1491H42.4353V18.8464H49.6472V25.1936H46.6767ZM57.9929 25.3573C63.1187 25.3573 65.2748 23.1727 65.2748 19.7609C65.2748 16.2936 62.8435 14.2327 57.9929 14.2327C53.2132 14.2327 50.6972 16.4709 50.6972 19.7609C50.6972 23.4736 53.3365 25.3573 57.9929 25.3573Z" fill="white"/>
<path d="M78.0896 25.1527V14.4373H80.7583V25.1527H78.0896Z" fill="white"/>
<path d="M94.4623 20.6754C93.7859 21.549 92.6218 21.9481 90.981 21.9581C90.635 21.9581 86.0476 21.9445 86.0476 21.9445V25.1526H83.4359V14.4372H90.9819C91.5867 14.374 92.1985 14.4374 92.7764 14.6231C93.3552 14.8089 93.8871 15.1129 94.339 15.5154C94.9353 16.2828 95.2252 17.2397 95.1543 18.2044C95.2151 19.0819 94.9712 19.9536 94.4623 20.6754ZM92.3209 17.1817C92.0448 16.7726 91.4494 16.5454 90.4417 16.5454H86.0338V19.8072H90.4132C91.4908 19.8072 92.0586 19.589 92.3209 19.1654C92.4764 18.8669 92.5436 18.5308 92.5141 18.1963C92.5371 17.8474 92.4709 17.4984 92.3209 17.1817Z" fill="white"/>
<path d="M102.85 25.3164C97.9306 25.3164 96.4251 23.4982 96.4251 21.6991H99.2162C99.2162 22.5864 100.446 23.2555 102.974 23.2555C105.489 23.2555 106.152 22.8182 106.152 22.1082C106.152 21.3164 105.655 21.071 103.32 20.8119C102.859 20.771 101.607 20.621 101.137 20.5528C97.8239 20.1837 96.5484 19.2146 96.5484 17.481C96.5484 15.6519 98.4147 14.2737 102.463 14.2737C106.857 14.2737 108.543 15.98 108.543 17.7546H105.782C105.782 16.8537 104.746 16.3346 102.3 16.3346C99.7849 16.3346 99.2466 16.6755 99.2466 17.3446C99.2466 18.041 99.7987 18.2591 102.467 18.5728C103.076 18.6555 104.429 18.8055 104.802 18.8455C107.622 19.1319 108.893 20.1419 108.893 21.93C108.888 24.06 106.954 25.3164 102.85 25.3164Z" fill="white"/>
<path d="M116.752 25.3027C113.146 25.3027 110.797 23.8963 110.797 20.9391V14.4373H113.435V20.9754C113.435 22.3273 114.555 23.2273 116.862 23.2273C118.948 23.2273 120.192 22.3818 120.192 20.9754V14.4373H122.804V21.1818C122.804 23.87 120.62 25.3027 116.752 25.3027Z" fill="white"/>
<path d="M137.104 25.1527V18L133.719 25.1527H131.149L127.86 18V25.1527H125.376V14.4373H128.742L132.473 22.6L136.286 14.4373H139.599V25.1527H137.104Z" fill="white"/>
</svg>
