<svg width="150" height="40" viewBox="0 0 150 40" fill="none" xmlns="http://www.w3.org/2000/svg">
<path d="M22.8152 29.4629L3.3152 16.0933C1.33911 14.7385 2.01085 11.9177 4.47498 11.2543L25.2 5.6634C25.639 5.50594 26.1094 5.45483 26.5724 5.51431C27.0352 5.57378 27.4772 5.74212 27.8615 6.00537C28.2457 6.26861 28.5614 6.61916 28.782 7.02791C29.0027 7.43667 29.1222 7.89185 29.1304 8.35568L27.9022 27.3151C27.7565 29.5655 24.7913 30.8176 22.8152 29.4629Z" fill="#A1AEBF"/>
<path d="M16.6308 32.7634L5.14271 10.4333C4.8801 9.9225 4.76455 9.34948 4.80878 8.7775C4.853 8.20552 5.05531 7.65679 5.39336 7.19183C5.73143 6.72687 6.19211 6.36374 6.72462 6.14248C7.25714 5.92122 7.84078 5.85043 8.41119 5.93793L29.7014 9.20388C30.1915 9.27908 30.6568 9.46885 31.0588 9.75758C31.4608 10.0463 31.7881 10.4258 32.0138 10.8647C32.2395 11.3037 32.3572 11.7896 32.3571 12.2826C32.357 12.7756 32.2391 13.2615 32.0134 13.7004L22.2058 32.7645C21.9424 33.2739 21.5428 33.7013 21.051 33.9996C20.5591 34.298 19.9941 34.4557 19.418 34.4556C18.8418 34.4555 18.2768 34.2976 17.785 33.9991C17.2933 33.7004 16.8939 33.2729 16.6308 32.7634Z" fill="#728095"/>
<path d="M29.0785 9.10773L18.4655 7.47961L5.43506 10.9962L10.6361 21.1095L22.8155 29.4629C23.0842 29.6452 23.3797 29.7848 23.6916 29.8767L28.3177 20.8848L29.0785 9.10773Z" fill="white"/>
<path d="M64.9929 20.592C64.9929 21.904 64.6969 23.064 64.1049 24.072C63.5289 25.064 62.7449 25.84 61.7529 26.4C60.7769 26.96 59.6809 27.24 58.4649 27.24C57.2489 27.24 56.1449 26.96 55.1529 26.4C54.1769 25.84 53.3929 25.064 52.8009 24.072C52.2249 23.064 51.9369 21.904 51.9369 20.592C51.9369 19.28 52.2249 18.128 52.8009 17.136C53.3929 16.128 54.1769 15.344 55.1529 14.784C56.1449 14.208 57.2489 13.92 58.4649 13.92C59.6809 13.92 60.7769 14.208 61.7529 14.784C62.7449 15.344 63.5289 16.128 64.1049 17.136C64.6969 18.128 64.9929 19.28 64.9929 20.592ZM62.1129 20.592C62.1129 19.776 61.9449 19.072 61.6089 18.48C61.2889 17.872 60.8489 17.4 60.2889 17.064C59.7449 16.728 59.1369 16.56 58.4649 16.56C57.7929 16.56 57.1769 16.728 56.6169 17.064C56.0729 17.4 55.6329 17.872 55.2969 18.48C54.9769 19.072 54.8169 19.776 54.8169 20.592C54.8169 21.392 54.9769 22.096 55.2969 22.704C55.6329 23.296 56.0729 23.76 56.6169 24.096C57.1769 24.432 57.7929 24.6 58.4649 24.6C59.1369 24.6 59.7449 24.432 60.2889 24.096C60.8489 23.76 61.2889 23.296 61.6089 22.704C61.9449 22.096 62.1129 21.392 62.1129 20.592ZM74.5934 9.24C74.9454 9.24 75.2894 9.288 75.6254 9.384C75.9614 9.48 76.2414 9.64 76.4654 9.864C76.6894 10.072 76.8014 10.352 76.8014 10.704C76.8014 11.104 76.6814 11.424 76.4414 11.664C76.2174 11.888 75.9534 12 75.6494 12C75.5054 12 75.2894 11.968 75.0014 11.904C74.7134 11.824 74.4334 11.784 74.1614 11.784C73.7614 11.784 73.4494 11.872 73.2254 12.048C73.0174 12.224 72.8734 12.432 72.7934 12.672C72.7134 12.896 72.6734 13.096 72.6734 13.272V25.536C72.6734 25.952 72.5374 26.304 72.2654 26.592C71.9934 26.864 71.6494 27 71.2334 27C70.8174 27 70.4734 26.864 70.2014 26.592C69.9294 26.304 69.7934 25.952 69.7934 25.536V13.296C69.7934 12.16 70.1934 11.2 70.9934 10.416C71.7934 9.632 72.9934 9.24 74.5934 9.24ZM74.8574 14.4C75.2414 14.4 75.5614 14.528 75.8174 14.784C76.0734 15.024 76.2014 15.336 76.2014 15.72C76.2014 16.104 76.0734 16.424 75.8174 16.68C75.5614 16.92 75.2414 17.04 74.8574 17.04H68.4974C68.1134 17.04 67.7934 16.92 67.5374 16.68C67.2814 16.424 67.1534 16.104 67.1534 15.72C67.1534 15.336 67.2814 15.024 67.5374 14.784C67.7934 14.528 68.1134 14.4 68.4974 14.4H74.8574ZM85.0814 9.24C85.4334 9.24 85.7774 9.288 86.1134 9.384C86.4494 9.48 86.7294 9.64 86.9534 9.864C87.1774 10.072 87.2894 10.352 87.2894 10.704C87.2894 11.104 87.1694 11.424 86.9294 11.664C86.7054 11.888 86.4414 12 86.1374 12C85.9934 12 85.7774 11.968 85.4894 11.904C85.2014 11.824 84.9214 11.784 84.6494 11.784C84.2494 11.784 83.9374 11.872 83.7134 12.048C83.5054 12.224 83.3614 12.432 83.2814 12.672C83.2014 12.896 83.1614 13.096 83.1614 13.272V25.536C83.1614 25.952 83.0254 26.304 82.7534 26.592C82.4814 26.864 82.1374 27 81.7214 27C81.3054 27 80.9614 26.864 80.6894 26.592C80.4174 26.304 80.2814 25.952 80.2814 25.536V13.296C80.2814 12.16 80.6814 11.2 81.4814 10.416C82.2814 9.632 83.4814 9.24 85.0814 9.24ZM85.3454 14.4C85.7294 14.4 86.0494 14.528 86.3054 14.784C86.5614 15.024 86.6894 15.336 86.6894 15.72C86.6894 16.104 86.5614 16.424 86.3054 16.68C86.0494 16.92 85.7294 17.04 85.3454 17.04H78.9854C78.6014 17.04 78.2814 16.92 78.0254 16.68C77.7694 16.424 77.6414 16.104 77.6414 15.72C77.6414 15.336 77.7694 15.024 78.0254 14.784C78.2814 14.528 78.6014 14.4 78.9854 14.4H85.3454ZM96.194 13.92C97.474 13.92 98.418 14.232 99.026 14.856C99.634 15.464 100.034 16.256 100.226 17.232L99.818 17.016L100.01 16.632C100.202 16.264 100.498 15.872 100.898 15.456C101.298 15.024 101.778 14.664 102.338 14.376C102.914 14.072 103.554 13.92 104.258 13.92C105.41 13.92 106.282 14.168 106.874 14.664C107.482 15.16 107.898 15.824 108.122 16.656C108.346 17.472 108.458 18.384 108.458 19.392V25.536C108.458 25.952 108.322 26.304 108.05 26.592C107.778 26.864 107.434 27 107.018 27C106.602 27 106.258 26.864 105.986 26.592C105.714 26.304 105.578 25.952 105.578 25.536V19.392C105.578 18.864 105.514 18.392 105.386 17.976C105.258 17.544 105.026 17.2 104.69 16.944C104.354 16.688 103.874 16.56 103.25 16.56C102.642 16.56 102.122 16.688 101.69 16.944C101.258 17.2 100.93 17.544 100.706 17.976C100.498 18.392 100.394 18.864 100.394 19.392V25.536C100.394 25.952 100.258 26.304 99.986 26.592C99.714 26.864 99.37 27 98.954 27C98.538 27 98.194 26.864 97.922 26.592C97.65 26.304 97.514 25.952 97.514 25.536V19.392C97.514 18.864 97.45 18.392 97.322 17.976C97.194 17.544 96.962 17.2 96.626 16.944C96.29 16.688 95.81 16.56 95.186 16.56C94.578 16.56 94.058 16.688 93.626 16.944C93.194 17.2 92.866 17.544 92.642 17.976C92.434 18.392 92.33 18.864 92.33 19.392V25.536C92.33 25.952 92.194 26.304 91.922 26.592C91.65 26.864 91.306 27 90.89 27C90.474 27 90.13 26.864 89.858 26.592C89.586 26.304 89.45 25.952 89.45 25.536V15.624C89.45 15.208 89.586 14.864 89.858 14.592C90.13 14.304 90.474 14.16 90.89 14.16C91.306 14.16 91.65 14.304 91.922 14.592C92.194 14.864 92.33 15.208 92.33 15.624V16.656L91.97 16.584C92.114 16.312 92.314 16.024 92.57 15.72C92.826 15.4 93.138 15.104 93.506 14.832C93.874 14.56 94.282 14.344 94.73 14.184C95.178 14.008 95.666 13.92 96.194 13.92ZM122.567 13.92C122.983 13.92 123.327 14.056 123.599 14.328C123.871 14.6 124.007 14.952 124.007 15.384V25.536C124.007 25.952 123.871 26.304 123.599 26.592C123.327 26.864 122.983 27 122.567 27C122.151 27 121.807 26.864 121.535 26.592C121.263 26.304 121.127 25.952 121.127 25.536V24.36L121.655 24.576C121.655 24.784 121.543 25.04 121.319 25.344C121.095 25.632 120.791 25.92 120.407 26.208C120.023 26.496 119.567 26.744 119.039 26.952C118.527 27.144 117.967 27.24 117.359 27.24C116.255 27.24 115.255 26.96 114.359 26.4C113.463 25.824 112.751 25.04 112.223 24.048C111.711 23.04 111.455 21.888 111.455 20.592C111.455 19.28 111.711 18.128 112.223 17.136C112.751 16.128 113.455 15.344 114.335 14.784C115.215 14.208 116.191 13.92 117.263 13.92C117.951 13.92 118.583 14.024 119.159 14.232C119.735 14.44 120.231 14.704 120.647 15.024C121.079 15.344 121.407 15.672 121.631 16.008C121.871 16.328 121.991 16.6 121.991 16.824L121.127 17.136V15.384C121.127 14.968 121.263 14.624 121.535 14.352C121.807 14.064 122.151 13.92 122.567 13.92ZM117.719 24.6C118.423 24.6 119.039 24.424 119.567 24.072C120.095 23.72 120.503 23.24 120.791 22.632C121.095 22.024 121.247 21.344 121.247 20.592C121.247 19.824 121.095 19.136 120.791 18.528C120.503 17.92 120.095 17.44 119.567 17.088C119.039 16.736 118.423 16.56 117.719 16.56C117.031 16.56 116.423 16.736 115.895 17.088C115.367 17.44 114.951 17.92 114.647 18.528C114.359 19.136 114.215 19.824 114.215 20.592C114.215 21.344 114.359 22.024 114.647 22.632C114.951 23.24 115.367 23.72 115.895 24.072C116.423 24.424 117.031 24.6 117.719 24.6ZM127.869 14.16C128.333 14.16 128.725 14.36 129.045 14.76L137.061 24.72C137.269 24.976 137.373 25.264 137.373 25.584C137.373 25.984 137.221 26.328 136.917 26.616C136.613 26.904 136.277 27.048 135.909 27.048C135.445 27.048 135.053 26.84 134.733 26.424L126.717 16.464C126.509 16.208 126.405 15.92 126.405 15.6C126.405 15.184 126.549 14.84 126.837 14.568C127.141 14.296 127.485 14.16 127.869 14.16ZM127.893 27.024C127.573 27.024 127.253 26.904 126.933 26.664C126.629 26.408 126.477 26.104 126.477 25.752C126.477 25.432 126.597 25.128 126.837 24.84L130.509 20.352L131.949 22.752L129.045 26.424C128.741 26.824 128.357 27.024 127.893 27.024ZM135.885 14.16C136.269 14.16 136.589 14.296 136.845 14.568C137.117 14.824 137.253 15.12 137.253 15.456C137.253 15.616 137.229 15.776 137.181 15.936C137.133 16.096 137.045 16.248 136.917 16.392L133.293 20.808L131.781 18.72L134.733 14.808C135.053 14.376 135.437 14.16 135.885 14.16Z" fill="white"/>
</svg>
