<svg width="150" height="40" viewBox="0 0 150 40" fill="none" xmlns="http://www.w3.org/2000/svg">
<path d="M8.42044 18.7254C9.25881 15.3365 11.2005 12.327 13.9362 10.1763C16.672 8.02557 20.0446 6.85718 23.517 6.85718C26.9894 6.85718 30.362 8.02557 33.0978 10.1763C35.8336 12.327 37.7752 15.3365 38.6136 18.7254H37.25C34.9496 18.6913 32.6965 19.3828 30.8068 20.7025C30.6977 20.782 30.5838 20.8545 30.4659 20.9197H30.3068C30.1888 20.8545 30.075 20.782 29.9659 20.7025C28.0595 19.4133 25.8143 18.7247 23.517 18.7247C21.2198 18.7247 18.9745 19.4133 17.0682 20.7025C16.9591 20.782 16.8452 20.8545 16.7273 20.9197H16.5682C16.4502 20.8545 16.3363 20.782 16.2273 20.7025C14.3376 19.3828 12.0844 18.6913 9.78407 18.7254H8.42044ZM34.7954 25.8911C35.4954 25.3429 36.3631 25.056 37.25 25.0797H39.0795V21.4111H37.25C35.6877 21.3921 34.1612 21.8812 32.8977 22.8054C32.1867 23.3326 31.3266 23.6171 30.4432 23.6171C29.5598 23.6171 28.6996 23.3326 27.9886 22.8054C26.6931 21.8984 25.1524 21.4121 23.5738 21.4121C21.9953 21.4121 20.4546 21.8984 19.1591 22.8054C18.4481 23.3326 17.5879 23.6171 16.7045 23.6171C15.8211 23.6171 14.961 23.3326 14.25 22.8054C12.9709 21.8693 11.4225 21.3797 9.84089 21.4111H7.95453V25.0797H9.78407C10.671 25.056 11.5386 25.3429 12.2386 25.8911C13.5318 26.7988 15.0708 27.2854 16.6477 27.2854C18.2246 27.2854 19.7636 26.7988 21.0568 25.8911C21.7577 25.3446 22.6246 25.058 23.5113 25.0797C24.3986 25.0541 25.2668 25.3412 25.9659 25.8911C27.2615 26.7982 28.8021 27.2844 30.3807 27.2844C31.9592 27.2844 33.4999 26.7982 34.7954 25.8911ZM34.7954 32.4511C35.4954 31.9029 36.3631 31.616 37.25 31.6397H39.0795V27.9711H37.25C35.6877 27.9521 34.1612 28.4412 32.8977 29.3654C32.1867 29.8926 31.3266 30.1771 30.4432 30.1771C29.5598 30.1771 28.6996 29.8926 27.9886 29.3654C26.6931 28.4584 25.1524 27.9723 23.5738 27.9723C21.9953 27.9723 20.4546 28.4584 19.1591 29.3654C18.4481 29.8926 17.5879 30.1771 16.7045 30.1771C15.8211 30.1771 14.961 29.8926 14.25 29.3654C12.9709 28.4294 11.4225 27.9397 9.84089 27.9711H7.95453V31.6397H9.78407C10.671 31.616 11.5386 31.9029 12.2386 32.4511C13.5318 33.3588 15.0708 33.8454 16.6477 33.8454C18.2246 33.8454 19.7636 33.3588 21.0568 32.4511C21.7577 31.9046 22.6246 31.618 23.5113 31.6397C24.3986 31.6141 25.2668 31.9012 25.9659 32.4511C27.2615 33.3582 28.8021 33.8444 30.3807 33.8444C31.9592 33.8444 33.4999 33.3582 34.7954 32.4511Z" fill="#4B5567"/>
<path d="M64.9929 21.592C64.9929 22.904 64.6969 24.064 64.1049 25.072C63.5289 26.064 62.7449 26.84 61.7529 27.4C60.7769 27.96 59.6809 28.24 58.4649 28.24C57.2489 28.24 56.1449 27.96 55.1529 27.4C54.1769 26.84 53.3929 26.064 52.8009 25.072C52.2249 24.064 51.9369 22.904 51.9369 21.592C51.9369 20.28 52.2249 19.128 52.8009 18.136C53.3929 17.128 54.1769 16.344 55.1529 15.784C56.1449 15.208 57.2489 14.92 58.4649 14.92C59.6809 14.92 60.7769 15.208 61.7529 15.784C62.7449 16.344 63.5289 17.128 64.1049 18.136C64.6969 19.128 64.9929 20.28 64.9929 21.592ZM62.1129 21.592C62.1129 20.776 61.9449 20.072 61.6089 19.48C61.2889 18.872 60.8489 18.4 60.2889 18.064C59.7449 17.728 59.1369 17.56 58.4649 17.56C57.7929 17.56 57.1769 17.728 56.6169 18.064C56.0729 18.4 55.6329 18.872 55.2969 19.48C54.9769 20.072 54.8169 20.776 54.8169 21.592C54.8169 22.392 54.9769 23.096 55.2969 23.704C55.6329 24.296 56.0729 24.76 56.6169 25.096C57.1769 25.432 57.7929 25.6 58.4649 25.6C59.1369 25.6 59.7449 25.432 60.2889 25.096C60.8489 24.76 61.2889 24.296 61.6089 23.704C61.9449 23.096 62.1129 22.392 62.1129 21.592ZM74.5934 10.24C74.9454 10.24 75.2894 10.288 75.6254 10.384C75.9614 10.48 76.2414 10.64 76.4654 10.864C76.6894 11.072 76.8014 11.352 76.8014 11.704C76.8014 12.104 76.6814 12.424 76.4414 12.664C76.2174 12.888 75.9534 13 75.6494 13C75.5054 13 75.2894 12.968 75.0014 12.904C74.7134 12.824 74.4334 12.784 74.1614 12.784C73.7614 12.784 73.4494 12.872 73.2254 13.048C73.0174 13.224 72.8734 13.432 72.7934 13.672C72.7134 13.896 72.6734 14.096 72.6734 14.272V26.536C72.6734 26.952 72.5374 27.304 72.2654 27.592C71.9934 27.864 71.6494 28 71.2334 28C70.8174 28 70.4734 27.864 70.2014 27.592C69.9294 27.304 69.7934 26.952 69.7934 26.536V14.296C69.7934 13.16 70.1934 12.2 70.9934 11.416C71.7934 10.632 72.9934 10.24 74.5934 10.24ZM74.8574 15.4C75.2414 15.4 75.5614 15.528 75.8174 15.784C76.0734 16.024 76.2014 16.336 76.2014 16.72C76.2014 17.104 76.0734 17.424 75.8174 17.68C75.5614 17.92 75.2414 18.04 74.8574 18.04H68.4974C68.1134 18.04 67.7934 17.92 67.5374 17.68C67.2814 17.424 67.1534 17.104 67.1534 16.72C67.1534 16.336 67.2814 16.024 67.5374 15.784C67.7934 15.528 68.1134 15.4 68.4974 15.4H74.8574ZM85.0814 10.24C85.4334 10.24 85.7774 10.288 86.1134 10.384C86.4494 10.48 86.7294 10.64 86.9534 10.864C87.1774 11.072 87.2894 11.352 87.2894 11.704C87.2894 12.104 87.1694 12.424 86.9294 12.664C86.7054 12.888 86.4414 13 86.1374 13C85.9934 13 85.7774 12.968 85.4894 12.904C85.2014 12.824 84.9214 12.784 84.6494 12.784C84.2494 12.784 83.9374 12.872 83.7134 13.048C83.5054 13.224 83.3614 13.432 83.2814 13.672C83.2014 13.896 83.1614 14.096 83.1614 14.272V26.536C83.1614 26.952 83.0254 27.304 82.7534 27.592C82.4814 27.864 82.1374 28 81.7214 28C81.3054 28 80.9614 27.864 80.6894 27.592C80.4174 27.304 80.2814 26.952 80.2814 26.536V14.296C80.2814 13.16 80.6814 12.2 81.4814 11.416C82.2814 10.632 83.4814 10.24 85.0814 10.24ZM85.3454 15.4C85.7294 15.4 86.0494 15.528 86.3054 15.784C86.5614 16.024 86.6894 16.336 86.6894 16.72C86.6894 17.104 86.5614 17.424 86.3054 17.68C86.0494 17.92 85.7294 18.04 85.3454 18.04H78.9854C78.6014 18.04 78.2814 17.92 78.0254 17.68C77.7694 17.424 77.6414 17.104 77.6414 16.72C77.6414 16.336 77.7694 16.024 78.0254 15.784C78.2814 15.528 78.6014 15.4 78.9854 15.4H85.3454ZM96.194 14.92C97.474 14.92 98.418 15.232 99.026 15.856C99.634 16.464 100.034 17.256 100.226 18.232L99.818 18.016L100.01 17.632C100.202 17.264 100.498 16.872 100.898 16.456C101.298 16.024 101.778 15.664 102.338 15.376C102.914 15.072 103.554 14.92 104.258 14.92C105.41 14.92 106.282 15.168 106.874 15.664C107.482 16.16 107.898 16.824 108.122 17.656C108.346 18.472 108.458 19.384 108.458 20.392V26.536C108.458 26.952 108.322 27.304 108.05 27.592C107.778 27.864 107.434 28 107.018 28C106.602 28 106.258 27.864 105.986 27.592C105.714 27.304 105.578 26.952 105.578 26.536V20.392C105.578 19.864 105.514 19.392 105.386 18.976C105.258 18.544 105.026 18.2 104.69 17.944C104.354 17.688 103.874 17.56 103.25 17.56C102.642 17.56 102.122 17.688 101.69 17.944C101.258 18.2 100.93 18.544 100.706 18.976C100.498 19.392 100.394 19.864 100.394 20.392V26.536C100.394 26.952 100.258 27.304 99.986 27.592C99.714 27.864 99.37 28 98.954 28C98.538 28 98.194 27.864 97.922 27.592C97.65 27.304 97.514 26.952 97.514 26.536V20.392C97.514 19.864 97.45 19.392 97.322 18.976C97.194 18.544 96.962 18.2 96.626 17.944C96.29 17.688 95.81 17.56 95.186 17.56C94.578 17.56 94.058 17.688 93.626 17.944C93.194 18.2 92.866 18.544 92.642 18.976C92.434 19.392 92.33 19.864 92.33 20.392V26.536C92.33 26.952 92.194 27.304 91.922 27.592C91.65 27.864 91.306 28 90.89 28C90.474 28 90.13 27.864 89.858 27.592C89.586 27.304 89.45 26.952 89.45 26.536V16.624C89.45 16.208 89.586 15.864 89.858 15.592C90.13 15.304 90.474 15.16 90.89 15.16C91.306 15.16 91.65 15.304 91.922 15.592C92.194 15.864 92.33 16.208 92.33 16.624V17.656L91.97 17.584C92.114 17.312 92.314 17.024 92.57 16.72C92.826 16.4 93.138 16.104 93.506 15.832C93.874 15.56 94.282 15.344 94.73 15.184C95.178 15.008 95.666 14.92 96.194 14.92ZM122.567 14.92C122.983 14.92 123.327 15.056 123.599 15.328C123.871 15.6 124.007 15.952 124.007 16.384V26.536C124.007 26.952 123.871 27.304 123.599 27.592C123.327 27.864 122.983 28 122.567 28C122.151 28 121.807 27.864 121.535 27.592C121.263 27.304 121.127 26.952 121.127 26.536V25.36L121.655 25.576C121.655 25.784 121.543 26.04 121.319 26.344C121.095 26.632 120.791 26.92 120.407 27.208C120.023 27.496 119.567 27.744 119.039 27.952C118.527 28.144 117.967 28.24 117.359 28.24C116.255 28.24 115.255 27.96 114.359 27.4C113.463 26.824 112.751 26.04 112.223 25.048C111.711 24.04 111.455 22.888 111.455 21.592C111.455 20.28 111.711 19.128 112.223 18.136C112.751 17.128 113.455 16.344 114.335 15.784C115.215 15.208 116.191 14.92 117.263 14.92C117.951 14.92 118.583 15.024 119.159 15.232C119.735 15.44 120.231 15.704 120.647 16.024C121.079 16.344 121.407 16.672 121.631 17.008C121.871 17.328 121.991 17.6 121.991 17.824L121.127 18.136V16.384C121.127 15.968 121.263 15.624 121.535 15.352C121.807 15.064 122.151 14.92 122.567 14.92ZM117.719 25.6C118.423 25.6 119.039 25.424 119.567 25.072C120.095 24.72 120.503 24.24 120.791 23.632C121.095 23.024 121.247 22.344 121.247 21.592C121.247 20.824 121.095 20.136 120.791 19.528C120.503 18.92 120.095 18.44 119.567 18.088C119.039 17.736 118.423 17.56 117.719 17.56C117.031 17.56 116.423 17.736 115.895 18.088C115.367 18.44 114.951 18.92 114.647 19.528C114.359 20.136 114.215 20.824 114.215 21.592C114.215 22.344 114.359 23.024 114.647 23.632C114.951 24.24 115.367 24.72 115.895 25.072C116.423 25.424 117.031 25.6 117.719 25.6ZM127.869 15.16C128.333 15.16 128.725 15.36 129.045 15.76L137.061 25.72C137.269 25.976 137.373 26.264 137.373 26.584C137.373 26.984 137.221 27.328 136.917 27.616C136.613 27.904 136.277 28.048 135.909 28.048C135.445 28.048 135.053 27.84 134.733 27.424L126.717 17.464C126.509 17.208 126.405 16.92 126.405 16.6C126.405 16.184 126.549 15.84 126.837 15.568C127.141 15.296 127.485 15.16 127.869 15.16ZM127.893 28.024C127.573 28.024 127.253 27.904 126.933 27.664C126.629 27.408 126.477 27.104 126.477 26.752C126.477 26.432 126.597 26.128 126.837 25.84L130.509 21.352L131.949 23.752L129.045 27.424C128.741 27.824 128.357 28.024 127.893 28.024ZM135.885 15.16C136.269 15.16 136.589 15.296 136.845 15.568C137.117 15.824 137.253 16.12 137.253 16.456C137.253 16.616 137.229 16.776 137.181 16.936C137.133 17.096 137.045 17.248 136.917 17.392L133.293 21.808L131.781 19.72L134.733 15.808C135.053 15.376 135.437 15.16 135.885 15.16Z" fill="white"/>
</svg>
