<svg width="150" height="40" viewBox="0 0 150 40" fill="none" xmlns="http://www.w3.org/2000/svg">
<path d="M23.4695 26.3636H31.0976L12.2013 7.27271H4.57318L23.4695 26.3636Z" fill="#728095"/>
<path d="M15.5488 7.27271L34.7561 25.4545V7.27271H29.5582V13.013L23.4941 7.27271L15.5488 7.27271Z" fill="#4B5567"/>
<path d="M0.914642 8.18176V26.3636H5.85194V20.6383L11.6121 26.3636H19.2073L0.914642 8.18176Z" fill="#A1AEBF"/>
<path d="M61.9942 20.592C61.9942 21.904 61.6982 23.064 61.1062 24.072C60.5302 25.064 59.7462 25.84 58.7542 26.4C57.7782 26.96 56.6822 27.24 55.4662 27.24C54.2502 27.24 53.1462 26.96 52.1542 26.4C51.1782 25.84 50.3942 25.064 49.8022 24.072C49.2262 23.064 48.9382 21.904 48.9382 20.592C48.9382 19.28 49.2262 18.128 49.8022 17.136C50.3942 16.128 51.1782 15.344 52.1542 14.784C53.1462 14.208 54.2502 13.92 55.4662 13.92C56.6822 13.92 57.7782 14.208 58.7542 14.784C59.7462 15.344 60.5302 16.128 61.1062 17.136C61.6982 18.128 61.9942 19.28 61.9942 20.592ZM59.1142 20.592C59.1142 19.776 58.9462 19.072 58.6102 18.48C58.2902 17.872 57.8502 17.4 57.2902 17.064C56.7462 16.728 56.1382 16.56 55.4662 16.56C54.7942 16.56 54.1782 16.728 53.6182 17.064C53.0742 17.4 52.6342 17.872 52.2982 18.48C51.9782 19.072 51.8182 19.776 51.8182 20.592C51.8182 21.392 51.9782 22.096 52.2982 22.704C52.6342 23.296 53.0742 23.76 53.6182 24.096C54.1782 24.432 54.7942 24.6 55.4662 24.6C56.1382 24.6 56.7462 24.432 57.2902 24.096C57.8502 23.76 58.2902 23.296 58.6102 22.704C58.9462 22.096 59.1142 21.392 59.1142 20.592ZM71.5948 9.24C71.9468 9.24 72.2908 9.288 72.6268 9.384C72.9628 9.48 73.2428 9.64 73.4668 9.864C73.6908 10.072 73.8028 10.352 73.8028 10.704C73.8028 11.104 73.6828 11.424 73.4428 11.664C73.2188 11.888 72.9548 12 72.6508 12C72.5068 12 72.2908 11.968 72.0028 11.904C71.7148 11.824 71.4348 11.784 71.1628 11.784C70.7628 11.784 70.4508 11.872 70.2268 12.048C70.0188 12.224 69.8748 12.432 69.7948 12.672C69.7148 12.896 69.6748 13.096 69.6748 13.272V25.536C69.6748 25.952 69.5388 26.304 69.2668 26.592C68.9948 26.864 68.6508 27 68.2348 27C67.8188 27 67.4748 26.864 67.2028 26.592C66.9308 26.304 66.7948 25.952 66.7948 25.536V13.296C66.7948 12.16 67.1948 11.2 67.9948 10.416C68.7948 9.632 69.9948 9.24 71.5948 9.24ZM71.8588 14.4C72.2428 14.4 72.5628 14.528 72.8188 14.784C73.0748 15.024 73.2028 15.336 73.2028 15.72C73.2028 16.104 73.0748 16.424 72.8188 16.68C72.5628 16.92 72.2428 17.04 71.8588 17.04H65.4988C65.1148 17.04 64.7948 16.92 64.5388 16.68C64.2828 16.424 64.1548 16.104 64.1548 15.72C64.1548 15.336 64.2828 15.024 64.5388 14.784C64.7948 14.528 65.1148 14.4 65.4988 14.4H71.8588ZM82.0828 9.24C82.4348 9.24 82.7788 9.288 83.1148 9.384C83.4508 9.48 83.7308 9.64 83.9548 9.864C84.1788 10.072 84.2908 10.352 84.2908 10.704C84.2908 11.104 84.1708 11.424 83.9308 11.664C83.7068 11.888 83.4428 12 83.1388 12C82.9948 12 82.7788 11.968 82.4908 11.904C82.2028 11.824 81.9228 11.784 81.6508 11.784C81.2508 11.784 80.9388 11.872 80.7148 12.048C80.5068 12.224 80.3628 12.432 80.2828 12.672C80.2028 12.896 80.1628 13.096 80.1628 13.272V25.536C80.1628 25.952 80.0268 26.304 79.7548 26.592C79.4828 26.864 79.1388 27 78.7228 27C78.3068 27 77.9628 26.864 77.6908 26.592C77.4188 26.304 77.2828 25.952 77.2828 25.536V13.296C77.2828 12.16 77.6828 11.2 78.4828 10.416C79.2828 9.632 80.4828 9.24 82.0828 9.24ZM82.3468 14.4C82.7308 14.4 83.0508 14.528 83.3068 14.784C83.5628 15.024 83.6908 15.336 83.6908 15.72C83.6908 16.104 83.5628 16.424 83.3068 16.68C83.0508 16.92 82.7308 17.04 82.3468 17.04H75.9868C75.6028 17.04 75.2828 16.92 75.0268 16.68C74.7708 16.424 74.6428 16.104 74.6428 15.72C74.6428 15.336 74.7708 15.024 75.0268 14.784C75.2828 14.528 75.6028 14.4 75.9868 14.4H82.3468ZM93.1954 13.92C94.4754 13.92 95.4194 14.232 96.0274 14.856C96.6354 15.464 97.0354 16.256 97.2274 17.232L96.8194 17.016L97.0114 16.632C97.2034 16.264 97.4994 15.872 97.8994 15.456C98.2994 15.024 98.7794 14.664 99.3394 14.376C99.9154 14.072 100.555 13.92 101.259 13.92C102.411 13.92 103.283 14.168 103.875 14.664C104.483 15.16 104.899 15.824 105.123 16.656C105.347 17.472 105.459 18.384 105.459 19.392V25.536C105.459 25.952 105.323 26.304 105.051 26.592C104.779 26.864 104.435 27 104.019 27C103.603 27 103.259 26.864 102.987 26.592C102.715 26.304 102.579 25.952 102.579 25.536V19.392C102.579 18.864 102.515 18.392 102.387 17.976C102.259 17.544 102.027 17.2 101.691 16.944C101.355 16.688 100.875 16.56 100.251 16.56C99.6434 16.56 99.1234 16.688 98.6914 16.944C98.2594 17.2 97.9314 17.544 97.7074 17.976C97.4994 18.392 97.3954 18.864 97.3954 19.392V25.536C97.3954 25.952 97.2594 26.304 96.9874 26.592C96.7154 26.864 96.3714 27 95.9554 27C95.5394 27 95.1954 26.864 94.9234 26.592C94.6514 26.304 94.5154 25.952 94.5154 25.536V19.392C94.5154 18.864 94.4514 18.392 94.3234 17.976C94.1954 17.544 93.9634 17.2 93.6274 16.944C93.2914 16.688 92.8114 16.56 92.1874 16.56C91.5794 16.56 91.0594 16.688 90.6274 16.944C90.1954 17.2 89.8674 17.544 89.6434 17.976C89.4354 18.392 89.3314 18.864 89.3314 19.392V25.536C89.3314 25.952 89.1954 26.304 88.9234 26.592C88.6514 26.864 88.3074 27 87.8914 27C87.4754 27 87.1314 26.864 86.8594 26.592C86.5874 26.304 86.4514 25.952 86.4514 25.536V15.624C86.4514 15.208 86.5874 14.864 86.8594 14.592C87.1314 14.304 87.4754 14.16 87.8914 14.16C88.3074 14.16 88.6514 14.304 88.9234 14.592C89.1954 14.864 89.3314 15.208 89.3314 15.624V16.656L88.9714 16.584C89.1154 16.312 89.3154 16.024 89.5714 15.72C89.8274 15.4 90.1394 15.104 90.5074 14.832C90.8754 14.56 91.2834 14.344 91.7314 14.184C92.1794 14.008 92.6674 13.92 93.1954 13.92ZM119.568 13.92C119.984 13.92 120.328 14.056 120.6 14.328C120.872 14.6 121.008 14.952 121.008 15.384V25.536C121.008 25.952 120.872 26.304 120.6 26.592C120.328 26.864 119.984 27 119.568 27C119.152 27 118.808 26.864 118.536 26.592C118.264 26.304 118.128 25.952 118.128 25.536V24.36L118.656 24.576C118.656 24.784 118.544 25.04 118.32 25.344C118.096 25.632 117.792 25.92 117.408 26.208C117.024 26.496 116.568 26.744 116.04 26.952C115.528 27.144 114.968 27.24 114.36 27.24C113.256 27.24 112.256 26.96 111.36 26.4C110.464 25.824 109.752 25.04 109.224 24.048C108.712 23.04 108.456 21.888 108.456 20.592C108.456 19.28 108.712 18.128 109.224 17.136C109.752 16.128 110.456 15.344 111.336 14.784C112.216 14.208 113.192 13.92 114.264 13.92C114.952 13.92 115.584 14.024 116.16 14.232C116.736 14.44 117.232 14.704 117.648 15.024C118.08 15.344 118.408 15.672 118.632 16.008C118.872 16.328 118.992 16.6 118.992 16.824L118.128 17.136V15.384C118.128 14.968 118.264 14.624 118.536 14.352C118.808 14.064 119.152 13.92 119.568 13.92ZM114.72 24.6C115.424 24.6 116.04 24.424 116.568 24.072C117.096 23.72 117.504 23.24 117.792 22.632C118.096 22.024 118.248 21.344 118.248 20.592C118.248 19.824 118.096 19.136 117.792 18.528C117.504 17.92 117.096 17.44 116.568 17.088C116.04 16.736 115.424 16.56 114.72 16.56C114.032 16.56 113.424 16.736 112.896 17.088C112.368 17.44 111.952 17.92 111.648 18.528C111.36 19.136 111.216 19.824 111.216 20.592C111.216 21.344 111.36 22.024 111.648 22.632C111.952 23.24 112.368 23.72 112.896 24.072C113.424 24.424 114.032 24.6 114.72 24.6ZM124.871 14.16C125.335 14.16 125.727 14.36 126.047 14.76L134.063 24.72C134.271 24.976 134.375 25.264 134.375 25.584C134.375 25.984 134.223 26.328 133.919 26.616C133.615 26.904 133.279 27.048 132.911 27.048C132.447 27.048 132.055 26.84 131.735 26.424L123.719 16.464C123.511 16.208 123.407 15.92 123.407 15.6C123.407 15.184 123.551 14.84 123.839 14.568C124.143 14.296 124.487 14.16 124.871 14.16ZM124.895 27.024C124.575 27.024 124.255 26.904 123.935 26.664C123.631 26.408 123.479 26.104 123.479 25.752C123.479 25.432 123.599 25.128 123.839 24.84L127.511 20.352L128.951 22.752L126.047 26.424C125.743 26.824 125.359 27.024 124.895 27.024ZM132.887 14.16C133.271 14.16 133.591 14.296 133.847 14.568C134.119 14.824 134.255 15.12 134.255 15.456C134.255 15.616 134.231 15.776 134.183 15.936C134.135 16.096 134.047 16.248 133.919 16.392L130.295 20.808L128.783 18.72L131.735 14.808C132.055 14.376 132.439 14.16 132.887 14.16Z" fill="white"/>
</svg>
