<svg width="150" height="40" viewBox="0 0 150 40" fill="none" xmlns="http://www.w3.org/2000/svg">
<path d="M16.0301 24.1027V32.1194C16.0301 32.4268 15.9073 32.7215 15.6886 32.9387C15.4701 33.156 15.1735 33.2781 14.8643 33.2781C14.5552 33.2781 14.2587 33.156 14.04 32.9387C13.8214 32.7215 13.6985 32.4268 13.6985 32.1194V24.1137C14.0232 24.3494 14.4123 24.4809 14.8141 24.4907C15.2521 24.5032 15.6812 24.3662 16.0301 24.1027ZM25.9587 21.7852C25.6629 21.7852 25.3791 21.9021 25.1699 22.11C24.9607 22.3179 24.8431 22.6 24.8431 22.894V24.2912C24.8431 24.5985 24.966 24.8932 25.1846 25.1105C25.4032 25.3278 25.6997 25.4499 26.0089 25.4499C26.3182 25.4499 26.6147 25.3278 26.8332 25.1105C27.0519 24.8932 27.1747 24.5985 27.1747 24.2912V22.9495C27.1834 22.7905 27.1575 22.6315 27.0988 22.4833C27.0402 22.3352 26.9501 22.2013 26.8347 22.0908C26.7193 21.9804 26.5813 21.8959 26.4303 21.8431C26.2791 21.7904 26.1182 21.7707 25.9587 21.7852ZM11.1662 27.1408C10.7648 27.1288 10.3762 26.9976 10.0506 26.7638V34.8027C10.0506 35.1115 10.174 35.4077 10.3937 35.626C10.6134 35.8443 10.9113 35.967 11.222 35.967C11.5326 35.967 11.8306 35.8443 12.0502 35.626C12.2699 35.4077 12.3933 35.1115 12.3933 34.8027V26.8193C12.029 27.0533 11.5992 27.166 11.1662 27.1408ZM22.3219 19.3791C22.1708 19.3716 22.0197 19.3947 21.8778 19.4471C21.736 19.4994 21.6064 19.5799 21.4967 19.6836C21.3872 19.7874 21.3001 19.9121 21.2405 20.0504C21.181 20.1887 21.1504 20.3376 21.1506 20.4879V26.664C21.1506 26.9728 21.274 27.269 21.4936 27.4873C21.7134 27.7056 22.0113 27.8283 22.3219 27.8283C22.6326 27.8283 22.9306 27.7056 23.1503 27.4873C23.3699 27.269 23.4933 26.9728 23.4933 26.664V20.5655C23.5022 20.4055 23.4761 20.2455 23.4168 20.0965C23.3574 19.9475 23.2664 19.813 23.1497 19.7023C23.033 19.5917 22.8937 19.5074 22.7412 19.4555C22.5887 19.4035 22.4266 19.385 22.2662 19.4013L22.3219 19.3791ZM18.6182 21.752C18.198 21.7491 17.789 21.6175 17.4469 21.375V29.4361C17.4469 29.7449 17.5703 30.041 17.7899 30.2594C18.0097 30.4777 18.3075 30.6003 18.6182 30.6003C18.9289 30.6003 19.2268 30.4777 19.4465 30.2594C19.6662 30.041 19.7896 29.7449 19.7896 29.4361V21.3861C19.4357 21.6481 19.0037 21.7847 18.5624 21.7741L18.6182 21.752ZM8.63382 27.9281V5.40803C8.63088 5.13352 8.5191 4.87126 8.32276 4.67818C8.12642 4.48511 7.86137 4.37682 7.58518 4.37683H7.33975C7.06355 4.37682 6.7985 4.48511 6.60216 4.67818C6.40582 4.87126 6.29404 5.13352 6.29111 5.40803V27.9281C6.29111 28.2045 6.40159 28.4696 6.59825 28.6651C6.7949 28.8606 7.06164 28.9704 7.33975 28.9704H7.58518C7.8633 28.9704 8.13002 28.8606 8.32668 28.6651C8.52334 28.4696 8.63382 28.2045 8.63382 27.9281ZM11.2889 26.287H11.0435C10.7653 26.287 10.4986 26.1772 10.302 25.9818C10.1053 25.7863 9.99482 25.5212 9.99482 25.2447V8.09136C9.99777 7.81686 10.1095 7.55459 10.3059 7.36152C10.5022 7.16844 10.7673 7.06015 11.0435 7.06016H11.2889C11.5651 7.06015 11.8301 7.16844 12.0265 7.36152C12.2228 7.55459 12.3346 7.81686 12.3375 8.09136V25.2669C12.3375 25.5433 12.227 25.8085 12.0304 26.0039C11.8337 26.1994 11.567 26.3092 11.2889 26.3092V26.287ZM14.9814 23.648H14.7249C14.4498 23.648 14.1858 23.5394 13.9913 23.346C13.7967 23.1526 13.6874 22.8904 13.6874 22.6168V10.7525C13.6859 10.6162 13.7117 10.4809 13.7631 10.3545C13.8146 10.2281 13.8907 10.1131 13.9872 10.0162C14.0837 9.91925 14.1986 9.84229 14.3253 9.78978C14.4519 9.73727 14.5876 9.71022 14.7249 9.71023H14.9814C15.2577 9.71316 15.5215 9.82425 15.7157 10.0194C15.9101 10.2146 16.0189 10.478 16.0189 10.7525V22.6168C16.0189 22.8904 15.9096 23.1526 15.7151 23.346C15.5205 23.5394 15.2567 23.648 14.9814 23.648ZM18.674 20.9314H18.4397C18.1635 20.9314 17.8985 20.8232 17.7021 20.6301C17.5058 20.437 17.394 20.1748 17.3911 19.9002V13.5135C17.3819 13.3711 17.4022 13.2284 17.4509 13.0941C17.4994 12.9599 17.5753 12.837 17.6736 12.7331C17.7718 12.6291 17.8905 12.5464 18.0224 12.4898C18.1541 12.4334 18.2962 12.4043 18.4397 12.4047H18.6852C18.9633 12.4047 19.23 12.5144 19.4267 12.7099C19.6234 12.9054 19.7338 13.1705 19.7338 13.4469V19.8781C19.7353 20.0159 19.7093 20.1526 19.6572 20.2803C19.6052 20.4081 19.5282 20.5243 19.4306 20.6223C19.3331 20.7202 19.2171 20.7979 19.089 20.8511C18.961 20.9042 18.8238 20.9314 18.6852 20.9314H18.674ZM22.3777 18.5475H22.1323C21.8542 18.5475 21.5874 18.4377 21.3908 18.2422C21.1941 18.0468 21.0837 17.7816 21.0837 17.5052V15.8531C21.0866 15.5785 21.1983 15.3163 21.3947 15.1232C21.591 14.9301 21.8561 14.8219 22.1323 14.8219H22.3777C22.6539 14.8219 22.919 14.9301 23.1153 15.1232C23.3117 15.3163 23.4235 15.5785 23.4264 15.8531V17.5052C23.4264 17.7797 23.3175 18.0432 23.1231 18.2384C22.9289 18.4335 22.6651 18.5446 22.3889 18.5475H22.3777Z" fill="white"/>
<path d="M57.996 22.592C57.996 23.904 57.7 25.064 57.108 26.072C56.532 27.064 55.748 27.84 54.756 28.4C53.78 28.96 52.684 29.24 51.468 29.24C50.252 29.24 49.148 28.96 48.156 28.4C47.18 27.84 46.396 27.064 45.804 26.072C45.228 25.064 44.94 23.904 44.94 22.592C44.94 21.28 45.228 20.128 45.804 19.136C46.396 18.128 47.18 17.344 48.156 16.784C49.148 16.208 50.252 15.92 51.468 15.92C52.684 15.92 53.78 16.208 54.756 16.784C55.748 17.344 56.532 18.128 57.108 19.136C57.7 20.128 57.996 21.28 57.996 22.592ZM55.116 22.592C55.116 21.776 54.948 21.072 54.612 20.48C54.292 19.872 53.852 19.4 53.292 19.064C52.748 18.728 52.14 18.56 51.468 18.56C50.796 18.56 50.18 18.728 49.62 19.064C49.076 19.4 48.636 19.872 48.3 20.48C47.98 21.072 47.82 21.776 47.82 22.592C47.82 23.392 47.98 24.096 48.3 24.704C48.636 25.296 49.076 25.76 49.62 26.096C50.18 26.432 50.796 26.6 51.468 26.6C52.14 26.6 52.748 26.432 53.292 26.096C53.852 25.76 54.292 25.296 54.612 24.704C54.948 24.096 55.116 23.392 55.116 22.592ZM67.5966 11.24C67.9486 11.24 68.2926 11.288 68.6286 11.384C68.9646 11.48 69.2446 11.64 69.4686 11.864C69.6926 12.072 69.8046 12.352 69.8046 12.704C69.8046 13.104 69.6846 13.424 69.4446 13.664C69.2206 13.888 68.9566 14 68.6526 14C68.5086 14 68.2926 13.968 68.0046 13.904C67.7166 13.824 67.4366 13.784 67.1646 13.784C66.7646 13.784 66.4526 13.872 66.2286 14.048C66.0206 14.224 65.8766 14.432 65.7966 14.672C65.7166 14.896 65.6766 15.096 65.6766 15.272V27.536C65.6766 27.952 65.5406 28.304 65.2686 28.592C64.9966 28.864 64.6526 29 64.2366 29C63.8206 29 63.4766 28.864 63.2046 28.592C62.9326 28.304 62.7966 27.952 62.7966 27.536V15.296C62.7966 14.16 63.1966 13.2 63.9966 12.416C64.7966 11.632 65.9966 11.24 67.5966 11.24ZM67.8606 16.4C68.2446 16.4 68.5646 16.528 68.8206 16.784C69.0766 17.024 69.2046 17.336 69.2046 17.72C69.2046 18.104 69.0766 18.424 68.8206 18.68C68.5646 18.92 68.2446 19.04 67.8606 19.04H61.5006C61.1166 19.04 60.7966 18.92 60.5406 18.68C60.2846 18.424 60.1566 18.104 60.1566 17.72C60.1566 17.336 60.2846 17.024 60.5406 16.784C60.7966 16.528 61.1166 16.4 61.5006 16.4H67.8606ZM78.0846 11.24C78.4366 11.24 78.7806 11.288 79.1166 11.384C79.4526 11.48 79.7326 11.64 79.9566 11.864C80.1806 12.072 80.2926 12.352 80.2926 12.704C80.2926 13.104 80.1726 13.424 79.9326 13.664C79.7086 13.888 79.4446 14 79.1406 14C78.9966 14 78.7806 13.968 78.4926 13.904C78.2046 13.824 77.9246 13.784 77.6526 13.784C77.2526 13.784 76.9406 13.872 76.7166 14.048C76.5086 14.224 76.3646 14.432 76.2846 14.672C76.2046 14.896 76.1646 15.096 76.1646 15.272V27.536C76.1646 27.952 76.0286 28.304 75.7566 28.592C75.4846 28.864 75.1406 29 74.7246 29C74.3086 29 73.9646 28.864 73.6926 28.592C73.4206 28.304 73.2846 27.952 73.2846 27.536V15.296C73.2846 14.16 73.6846 13.2 74.4846 12.416C75.2846 11.632 76.4846 11.24 78.0846 11.24ZM78.3486 16.4C78.7326 16.4 79.0526 16.528 79.3086 16.784C79.5646 17.024 79.6926 17.336 79.6926 17.72C79.6926 18.104 79.5646 18.424 79.3086 18.68C79.0526 18.92 78.7326 19.04 78.3486 19.04H71.9886C71.6046 19.04 71.2846 18.92 71.0286 18.68C70.7726 18.424 70.6446 18.104 70.6446 17.72C70.6446 17.336 70.7726 17.024 71.0286 16.784C71.2846 16.528 71.6046 16.4 71.9886 16.4H78.3486ZM89.1972 15.92C90.4772 15.92 91.4212 16.232 92.0292 16.856C92.6372 17.464 93.0372 18.256 93.2292 19.232L92.8212 19.016L93.0132 18.632C93.2052 18.264 93.5012 17.872 93.9012 17.456C94.3012 17.024 94.7812 16.664 95.3412 16.376C95.9172 16.072 96.5572 15.92 97.2612 15.92C98.4132 15.92 99.2852 16.168 99.8772 16.664C100.485 17.16 100.901 17.824 101.125 18.656C101.349 19.472 101.461 20.384 101.461 21.392V27.536C101.461 27.952 101.325 28.304 101.053 28.592C100.781 28.864 100.437 29 100.021 29C99.6052 29 99.2612 28.864 98.9892 28.592C98.7172 28.304 98.5812 27.952 98.5812 27.536V21.392C98.5812 20.864 98.5172 20.392 98.3892 19.976C98.2612 19.544 98.0292 19.2 97.6932 18.944C97.3572 18.688 96.8772 18.56 96.2532 18.56C95.6452 18.56 95.1252 18.688 94.6932 18.944C94.2612 19.2 93.9332 19.544 93.7092 19.976C93.5012 20.392 93.3972 20.864 93.3972 21.392V27.536C93.3972 27.952 93.2612 28.304 92.9892 28.592C92.7172 28.864 92.3732 29 91.9572 29C91.5412 29 91.1972 28.864 90.9252 28.592C90.6532 28.304 90.5172 27.952 90.5172 27.536V21.392C90.5172 20.864 90.4532 20.392 90.3252 19.976C90.1972 19.544 89.9652 19.2 89.6292 18.944C89.2932 18.688 88.8132 18.56 88.1892 18.56C87.5812 18.56 87.0612 18.688 86.6292 18.944C86.1972 19.2 85.8692 19.544 85.6452 19.976C85.4372 20.392 85.3332 20.864 85.3332 21.392V27.536C85.3332 27.952 85.1972 28.304 84.9252 28.592C84.6532 28.864 84.3092 29 83.8932 29C83.4772 29 83.1332 28.864 82.8612 28.592C82.5892 28.304 82.4532 27.952 82.4532 27.536V17.624C82.4532 17.208 82.5892 16.864 82.8612 16.592C83.1332 16.304 83.4772 16.16 83.8932 16.16C84.3092 16.16 84.6532 16.304 84.9252 16.592C85.1972 16.864 85.3332 17.208 85.3332 17.624V18.656L84.9732 18.584C85.1172 18.312 85.3172 18.024 85.5732 17.72C85.8292 17.4 86.1412 17.104 86.5092 16.832C86.8772 16.56 87.2852 16.344 87.7332 16.184C88.1812 16.008 88.6692 15.92 89.1972 15.92ZM115.57 15.92C115.986 15.92 116.33 16.056 116.602 16.328C116.874 16.6 117.01 16.952 117.01 17.384V27.536C117.01 27.952 116.874 28.304 116.602 28.592C116.33 28.864 115.986 29 115.57 29C115.154 29 114.81 28.864 114.538 28.592C114.266 28.304 114.13 27.952 114.13 27.536V26.36L114.658 26.576C114.658 26.784 114.546 27.04 114.322 27.344C114.098 27.632 113.794 27.92 113.41 28.208C113.026 28.496 112.57 28.744 112.042 28.952C111.53 29.144 110.97 29.24 110.362 29.24C109.258 29.24 108.258 28.96 107.362 28.4C106.466 27.824 105.754 27.04 105.226 26.048C104.714 25.04 104.458 23.888 104.458 22.592C104.458 21.28 104.714 20.128 105.226 19.136C105.754 18.128 106.458 17.344 107.338 16.784C108.218 16.208 109.194 15.92 110.266 15.92C110.954 15.92 111.586 16.024 112.162 16.232C112.738 16.44 113.234 16.704 113.65 17.024C114.082 17.344 114.41 17.672 114.634 18.008C114.874 18.328 114.994 18.6 114.994 18.824L114.13 19.136V17.384C114.13 16.968 114.266 16.624 114.538 16.352C114.81 16.064 115.154 15.92 115.57 15.92ZM110.722 26.6C111.426 26.6 112.042 26.424 112.57 26.072C113.098 25.72 113.506 25.24 113.794 24.632C114.098 24.024 114.25 23.344 114.25 22.592C114.25 21.824 114.098 21.136 113.794 20.528C113.506 19.92 113.098 19.44 112.57 19.088C112.042 18.736 111.426 18.56 110.722 18.56C110.034 18.56 109.426 18.736 108.898 19.088C108.37 19.44 107.954 19.92 107.65 20.528C107.362 21.136 107.218 21.824 107.218 22.592C107.218 23.344 107.362 24.024 107.65 24.632C107.954 25.24 108.37 25.72 108.898 26.072C109.426 26.424 110.034 26.6 110.722 26.6ZM120.872 16.16C121.336 16.16 121.728 16.36 122.048 16.76L130.064 26.72C130.272 26.976 130.376 27.264 130.376 27.584C130.376 27.984 130.224 28.328 129.92 28.616C129.616 28.904 129.28 29.048 128.912 29.048C128.448 29.048 128.056 28.84 127.736 28.424L119.72 18.464C119.512 18.208 119.408 17.92 119.408 17.6C119.408 17.184 119.552 16.84 119.84 16.568C120.144 16.296 120.488 16.16 120.872 16.16ZM120.896 29.024C120.576 29.024 120.256 28.904 119.936 28.664C119.632 28.408 119.48 28.104 119.48 27.752C119.48 27.432 119.6 27.128 119.84 26.84L123.512 22.352L124.952 24.752L122.048 28.424C121.744 28.824 121.36 29.024 120.896 29.024ZM128.888 16.16C129.272 16.16 129.592 16.296 129.848 16.568C130.12 16.824 130.256 17.12 130.256 17.456C130.256 17.616 130.232 17.776 130.184 17.936C130.136 18.096 130.048 18.248 129.92 18.392L126.296 22.808L124.784 20.72L127.736 16.808C128.056 16.376 128.44 16.16 128.888 16.16Z" fill="white"/>
</svg>
