<svg width="150" height="40" viewBox="0 0 150 40" fill="none" xmlns="http://www.w3.org/2000/svg">
<path d="M59.2826 11.5288H56.1404V25.6212H64.839V22.8598H59.2826V11.5288Z" fill="white"/>
<path d="M65.1394 20.8412C65.1394 23.8501 67.1704 25.8497 70.2359 25.8497C73.2823 25.8497 75.3133 23.8501 75.3133 20.8412C75.3133 17.8323 73.2823 15.8136 70.2359 15.8136C67.1704 15.8136 65.1394 17.8323 65.1394 20.8412ZM68.1091 20.8221C68.1091 19.3939 68.9522 18.4417 70.2359 18.4417C71.5005 18.4417 72.3435 19.3939 72.3435 20.8221C72.3435 22.2695 71.5005 23.2217 70.2359 23.2217C68.9522 23.2217 68.1091 22.2695 68.1091 20.8221Z" fill="white"/>
<path d="M75.7872 20.6889C75.7872 23.5645 77.6649 25.5069 80.328 25.5069C81.6118 25.5069 82.723 25.0499 83.2787 24.3072V25.6212C83.2787 26.9352 82.4548 27.8112 80.9987 27.8112C79.6958 27.8112 78.7952 27.2018 78.7378 26.1164H75.7488C76.0171 28.7254 78.048 30.4773 80.8262 30.4773C84.1025 30.4773 86.1718 28.3635 86.1718 25.0118V16.0994H83.5086L83.3553 17.0705C82.8188 16.2898 81.6884 15.7756 80.3856 15.7756C77.7031 15.7756 75.7872 17.7752 75.7872 20.6889ZM78.7761 20.6127C78.7761 19.2415 79.6958 18.3274 80.8645 18.3274C82.2249 18.3274 83.2212 19.2225 83.2212 20.6127C83.2212 22.0029 82.244 22.9551 80.8837 22.9551C79.715 22.9551 78.7761 22.0029 78.7761 20.6127Z" fill="white"/>
<path d="M87.032 20.8412C87.032 23.8501 89.0631 25.8497 92.1289 25.8497C95.1754 25.8497 97.2061 23.8501 97.2061 20.8412C97.2061 17.8323 95.1754 15.8136 92.1289 15.8136C89.0631 15.8136 87.032 17.8323 87.032 20.8412ZM90.0017 20.8221C90.0017 19.3939 90.8447 18.4417 92.1289 18.4417C93.3929 18.4417 94.2359 19.3939 94.2359 20.8221C94.2359 22.2695 93.3929 23.2217 92.1289 23.2217C90.8447 23.2217 90.0017 22.2695 90.0017 20.8221Z" fill="white"/>
<path d="M99.75 14.6138C100.669 14.6138 101.417 13.8711 101.417 12.9379C101.417 12.0048 100.669 11.2811 99.75 11.2811C98.8114 11.2811 98.064 12.0048 98.064 12.9379C98.064 13.8711 98.8114 14.6138 99.75 14.6138ZM98.2553 25.6211H101.225V16.0992H98.2553V25.6211Z" fill="white"/>
<path d="M102.954 30.1916H105.867V24.669C106.422 25.3926 107.687 25.8877 109.009 25.8877C111.863 25.8877 113.588 23.7168 113.511 20.7078C113.434 17.6418 111.653 15.7946 108.989 15.7946C107.629 15.7946 106.346 16.3849 105.809 17.261L105.655 16.0993H102.954V30.1916ZM105.924 20.8602C105.924 19.4319 106.882 18.4798 108.261 18.4798C109.66 18.4798 110.541 19.4509 110.541 20.8602C110.541 22.2695 109.66 23.2406 108.261 23.2406C106.882 23.2406 105.924 22.2885 105.924 20.8602Z" fill="white"/>
<path d="M113.825 22.6122C113.902 24.5356 115.435 25.8687 117.849 25.8687C120.167 25.8687 121.777 24.6499 121.777 22.6884C121.777 21.2792 120.934 20.346 119.362 19.9651L117.658 19.5462C117.045 19.3938 116.661 19.2414 116.661 18.7463C116.661 18.2512 117.063 17.9274 117.658 17.9274C118.328 17.9274 118.768 18.3655 118.75 19.0129H121.413C121.336 17.0324 119.823 15.7946 117.715 15.7946C115.589 15.7946 113.998 17.0515 113.998 18.9558C113.998 20.2317 114.707 21.2792 116.603 21.7743L118.289 22.2123C118.788 22.3456 118.998 22.5741 118.998 22.8978C118.998 23.374 118.558 23.6787 117.81 23.6787C116.948 23.6787 116.489 23.2787 116.489 22.6122H113.825Z" fill="white"/>
<path d="M126.293 25.8686C127.462 25.8686 128.631 25.3354 129.225 24.5546L129.417 25.6211H132.195V16.0992H129.244V21.0506C129.244 22.4788 128.823 23.2596 127.462 23.2596C126.408 23.2596 125.718 22.7836 125.718 21.0125V16.0992H122.768V22.0789C122.768 24.3452 124.032 25.8686 126.293 25.8686Z" fill="white"/>
<path d="M136.873 25.6212V20.4223C136.873 18.8226 137.736 18.3655 138.579 18.3655C139.517 18.3655 140.13 18.9369 140.13 20.1176V25.6212H143.043V20.4223C143.043 18.8036 143.886 18.3465 144.729 18.3465C145.667 18.3465 146.3 18.9178 146.3 20.1176V25.6212H149.174V19.3939C149.174 17.2229 148.024 15.7756 145.552 15.7756C144.173 15.7756 143.043 16.4421 142.544 17.4705C141.97 16.4421 140.973 15.7756 139.383 15.7756C138.329 15.7756 137.352 16.2517 136.778 17.0134L136.663 16.0994H133.903V25.6212H136.873Z" fill="white"/>
<path d="M0 20.0001C0 12.2957 6.28372 6.05005 14.0351 6.05005H32.4561C40.2075 6.05005 46.4912 12.2957 46.4912 20.0001V33.9501H14.0351C6.28372 33.9501 0 27.7045 0 20.0001Z" fill="white"/>
<path d="M32.4562 11.2811H14.0351C9.1905 11.2811 5.26317 15.1847 5.26317 19.9999C5.26317 24.8151 9.1905 28.7187 14.0351 28.7187H32.4562C37.3008 28.7187 41.2281 24.8151 41.2281 19.9999C41.2281 15.1847 37.3008 11.2811 32.4562 11.2811Z" fill="#4B5567"/>
<path d="M14.0351 24.3594C16.4574 24.3594 18.421 22.4076 18.421 20C18.421 17.5924 16.4574 15.6406 14.0351 15.6406C11.6128 15.6406 9.6491 17.5924 9.6491 20C9.6491 22.4076 11.6128 24.3594 14.0351 24.3594Z" fill="white"/>
<path d="M12.2816 19.1282C12.7663 19.1282 13.1592 18.7378 13.1592 18.2563C13.1592 17.7748 12.7663 17.3844 12.2816 17.3844C11.7969 17.3844 11.404 17.7748 11.404 18.2563C11.404 18.7378 11.7969 19.1282 12.2816 19.1282Z" fill="#0D0D0D"/>
<path d="M33.3338 24.3594C35.7561 24.3594 37.7197 22.4076 37.7197 20C37.7197 17.5924 35.7561 15.6406 33.3338 15.6406C30.9115 15.6406 28.9478 17.5924 28.9478 20C28.9478 22.4076 30.9115 24.3594 33.3338 24.3594Z" fill="white"/>
<path d="M31.5794 19.1282C32.064 19.1282 32.4569 18.7378 32.4569 18.2563C32.4569 17.7748 32.064 17.3844 31.5794 17.3844C31.0947 17.3844 30.7018 17.7748 30.7018 18.2563C30.7018 18.7378 31.0947 19.1282 31.5794 19.1282Z" fill="#0D0D0D"/>
</svg>
