<svg width="38" height="42" viewBox="0 0 38 42" fill="none" xmlns="http://www.w3.org/2000/svg">
<g clip-path="url(#clip0_0_538)">
<path d="M18.5845 29.6596C17.0301 29.8474 16.2871 32.1593 15.6908 33.3548C14.7425 35.2122 13.9115 37.1289 12.9437 38.9765C12.5526 39.7175 11.5457 42.1381 10.4312 41.9998C8.30975 41.7429 6.4034 41.3576 4.70234 40.8636C3.14793 40.4091 1.87703 39.8953 0.889632 39.3223C0.713661 39.2235 0.606123 39.0358 0.606123 38.8283V24.5418C0.606123 24.3244 0.723437 24.1268 0.918961 24.0379C1.09493 23.949 1.30023 23.9589 1.45665 24.0577C2.80576 24.9073 4.49704 25.6088 6.55004 26.172C8.73013 26.7747 11.1253 27.1106 13.7355 27.1896C14.762 27.2292 15.7201 27.2094 16.5902 27.1304C17.2158 27.0711 17.7242 26.992 18.125 26.8932C18.3694 26.834 18.5454 26.6067 18.5454 26.34V25.4606C18.5454 25.1247 18.2619 24.8678 17.9393 24.8975C17.6851 24.9172 17.4114 24.937 17.1181 24.9567C16.5608 24.9963 16.0525 25.016 15.5734 25.016C10.3823 25.016 6.49138 24.0577 3.90069 22.1311C1.30023 20.2242 0 17.4282 0 13.7429C0 10.6505 1.11448 8.23974 2.82531 5.76973C3.9789 4.12965 5.24003 2.52908 6.82377 1.2842C7.63519 0.651879 8.77901 -0.395404 9.85439 0.147997C11.5066 0.968039 12.5428 3.52697 13.3738 5.04849C14.3808 6.8763 15.329 8.7535 16.5315 10.4529C17.2843 11.5199 18.4183 13.0908 19.875 13.0908C23.4824 13.0908 26.8161 -0.395404 29.3676 0.0491969C31.753 0.464158 33.7669 1.02732 35.4191 1.75844C35.6244 1.84736 35.7613 2.05484 35.7613 2.28208V16.5488C35.7613 16.7761 35.6244 16.9836 35.4191 17.0725L35.292 17.1219C35.1356 17.191 34.9596 17.1812 34.813 17.1021C33.5518 16.4402 32.017 15.8968 30.2084 15.4818C28.2825 15.0372 26.1806 14.8198 23.8832 14.8198C22.8958 14.8198 21.9671 14.8791 21.1165 14.9977C20.5593 15.0767 20.1291 15.1656 19.8163 15.2546C19.5817 15.3237 19.4155 15.551 19.4155 15.798V16.5982C19.4155 16.9243 19.699 17.191 20.0216 17.1614C20.2856 17.1416 20.5789 17.1219 20.9015 17.0922C21.4978 17.0527 22.2701 17.033 23.2184 17.033C28.0478 17.033 31.7237 18.0012 34.2362 19.9476C40.4929 24.7789 38.0587 34.1847 33.1412 38.9666C31.665 40.3992 28.7322 43.3336 26.8258 41.1995C25.3496 39.5495 24.5284 37.2475 23.5508 35.2913C22.6612 33.503 22.0257 31.3788 20.3247 30.1833C19.8652 29.8572 19.3177 29.6201 18.7605 29.63C18.7116 29.6399 18.6432 29.6498 18.5845 29.6596Z" fill="url(#paint0_linear_0_538)"/>
<path d="M18.5845 29.6596C17.0301 29.8474 16.2871 32.1593 15.6908 33.3548C14.7425 35.2122 13.9115 37.1289 12.9437 38.9765C12.5526 39.7175 11.5457 42.1381 10.4312 41.9998C8.30975 41.7429 6.4034 41.3576 4.70234 40.8636C3.14793 40.4091 1.87703 39.8953 0.889632 39.3223C0.713661 39.2235 0.606123 39.0358 0.606123 38.8283V24.5418C0.606123 24.3244 0.723437 24.1268 0.918961 24.0379C1.09493 23.949 1.30023 23.9589 1.45665 24.0577C2.80576 24.9073 4.49704 25.6088 6.55004 26.172C8.73013 26.7747 11.1253 27.1106 13.7355 27.1896C14.762 27.2292 15.7201 27.2094 16.5902 27.1304C17.2158 27.0711 17.7242 26.992 18.125 26.8932C18.3694 26.834 18.5454 26.6067 18.5454 26.34V25.4606C18.5454 25.1247 18.2619 24.8678 17.9393 24.8975C17.6851 24.9172 17.4114 24.937 17.1181 24.9567C16.5608 24.9963 16.0525 25.016 15.5734 25.016C10.3823 25.016 6.49138 24.0577 3.90069 22.1311C1.30023 20.2242 0 17.4282 0 13.7429C0 10.6505 1.11448 8.23974 2.82531 5.76973C3.9789 4.12965 5.24003 2.52908 6.82377 1.2842C7.63519 0.651879 8.77901 -0.395404 9.85439 0.147997C11.5066 0.968039 12.5428 3.52697 13.3738 5.04849C14.3808 6.8763 15.329 8.7535 16.5315 10.4529C17.2843 11.5199 18.4183 13.0908 19.875 13.0908C23.4824 13.0908 26.8161 -0.395404 29.3676 0.0491969C31.753 0.464158 33.7669 1.02732 35.4191 1.75844C35.6244 1.84736 35.7613 2.05484 35.7613 2.28208V16.5488C35.7613 16.7761 35.6244 16.9836 35.4191 17.0725L35.292 17.1219C35.1356 17.191 34.9596 17.1812 34.813 17.1021C33.5518 16.4402 32.017 15.8968 30.2084 15.4818C28.2825 15.0372 26.1806 14.8198 23.8832 14.8198C22.8958 14.8198 21.9671 14.8791 21.1165 14.9977C20.5593 15.0767 20.1291 15.1656 19.8163 15.2546C19.5817 15.3237 19.4155 15.551 19.4155 15.798V16.5982C19.4155 16.9243 19.699 17.191 20.0216 17.1614C20.2856 17.1416 20.5789 17.1219 20.9015 17.0922C21.4978 17.0527 22.2701 17.033 23.2184 17.033C28.0478 17.033 31.7237 18.0012 34.2362 19.9476C40.4929 24.7789 38.0587 34.1847 33.1412 38.9666C31.665 40.3992 28.7322 43.3336 26.8258 41.1995C25.3496 39.5495 24.5284 37.2475 23.5508 35.2913C22.6612 33.503 22.0257 31.3788 20.3247 30.1833C19.8652 29.8572 19.3177 29.6201 18.7605 29.63C18.7116 29.6399 18.6432 29.6498 18.5845 29.6596Z" fill="url(#paint1_linear_0_538)"/>
</g>
<defs>
<linearGradient id="paint0_linear_0_538" x1="27.2394" y1="9.46422" x2="7.18243" y2="32.8363" gradientUnits="userSpaceOnUse">
<stop stop-color="#9DE8EE"/>
<stop offset="0.0001" stop-color="#9DE8EE"/>
<stop offset="0.490049" stop-color="#FA7C0B"/>
<stop offset="1" stop-color="#9F8CED"/>
</linearGradient>
<linearGradient id="paint1_linear_0_538" x1="27.2394" y1="9.46422" x2="7.18243" y2="32.8363" gradientUnits="userSpaceOnUse">
<stop stop-color="#9DE8EE"/>
<stop offset="0.0001" stop-color="#9DE8EE"/>
<stop offset="0.490049" stop-color="#FA7C0B"/>
<stop offset="1" stop-color="#9F8CED"/>
</linearGradient>
<clipPath id="clip0_0_538">
<rect width="38" height="42" fill="white"/>
</clipPath>
</defs>
</svg>
