<svg width="133" height="14" viewBox="0 0 133 14" fill="none" xmlns="http://www.w3.org/2000/svg">
<path d="M7.552 13.836C4.8 13.836 1.856 13.02 0.32 11.836L1.76 9.356C3.088 10.412 5.568 11.18 7.76 11.18C9.376 11.18 10.4 10.796 10.4 10.204C10.4 9.708 9.664 9.404 7.92 9.212L5.808 8.972C2.192 8.588 0.64 7.58 0.64 5.548C0.64 3.084 3.424 1.692 7.504 1.692C9.92 1.692 12.192 2.268 13.6 3.18L12.432 5.58C11.184 4.748 9.296 4.22 7.536 4.236C5.904 4.252 4.704 4.636 4.688 5.244C4.688 5.676 5.328 5.948 6.8 6.092L8.928 6.316C12.8 6.716 14.464 7.772 14.464 9.852C14.48 12.22 11.76 13.836 7.552 13.836ZM15.4213 13.5V1.564H19.2133V7.244H19.2293C20.0133 5.868 21.4373 4.972 23.5013 4.972C26.1253 4.972 27.7893 6.444 27.7733 8.828L27.7573 13.5H23.9973V9.228C23.9973 7.916 23.1813 7.132 21.7733 7.132C20.1733 7.132 19.1973 8.06 19.1973 9.628V13.5H15.4213ZM32.7456 13.756C30.1216 13.756 28.5856 12.924 28.5856 11.484C28.5856 9.836 30.5856 8.716 34.0096 8.396L37.1616 8.108C37.5136 8.076 37.7216 7.948 37.7216 7.788C37.7216 7.388 36.8096 7.084 35.4176 7.084C33.4176 7.084 31.1776 7.724 29.6096 8.732L28.6176 6.764C30.2176 5.676 32.8096 4.972 35.4176 4.972C39.0496 4.972 41.4496 6.124 41.4496 8.156V13.5H38.1696L37.6576 11.708H37.6416C36.8256 12.972 35.0176 13.756 32.7456 13.756ZM34.0896 11.516C36.2336 11.516 37.6576 10.828 37.6576 9.82V9.788L34.2656 10.092C33.0336 10.188 32.3776 10.428 32.3776 10.86C32.3776 11.276 32.9696 11.516 34.0896 11.516ZM47.1851 13.756C44.2411 13.756 42.3211 12.028 42.3211 9.372C42.3211 6.716 44.2411 4.972 47.1851 4.972C49.2491 4.972 51.0091 5.916 51.6491 7.356H51.6651V1.564H55.4571V13.5H52.1931L51.6971 11.372H51.6811C51.0251 12.828 49.2491 13.756 47.1851 13.756ZM48.9451 11.244C50.6731 11.244 51.7931 10.508 51.7931 9.372C51.7931 8.236 50.6731 7.484 48.9451 7.484C47.2171 7.484 46.0971 8.236 46.0971 9.372C46.0971 10.508 47.2171 11.244 48.9451 11.244ZM58.6858 4.364C57.4698 4.364 56.5898 3.596 56.5898 2.508C56.5898 1.42 57.4698 0.667999 58.6858 0.667999C59.9018 0.667999 60.7818 1.42 60.7818 2.508C60.7818 3.596 59.9018 4.364 58.6858 4.364ZM56.7978 13.5V5.244H60.5738V13.5H56.7978ZM68.7853 13.756C64.5293 13.756 61.6493 12.044 61.6493 9.356C61.6493 6.78 64.3213 4.972 68.1453 4.972C71.9053 4.972 74.3853 6.716 74.3853 9.372C74.3853 9.612 74.3533 9.964 74.2733 10.236H65.6333C66.0653 11.196 67.5053 11.58 69.0573 11.58C70.6892 11.58 72.3373 11.228 73.1853 10.748L74.2253 12.54C73.1053 13.26 70.9933 13.756 68.7853 13.756ZM65.5693 8.62H70.5773C70.5293 7.676 69.4413 7.036 68.1133 7.036C66.7533 7.036 65.7133 7.692 65.5693 8.62ZM83.595 4.972C86.219 4.972 87.883 6.444 87.867 8.828L87.851 13.5H84.091V9.228C84.091 7.916 83.275 7.132 81.867 7.132C80.267 7.132 79.291 8.06 79.291 9.628V13.5H75.515V5.244H78.779L79.179 7.244H79.195C79.963 5.868 81.531 4.972 83.595 4.972ZM95.0493 13.756C92.3613 13.756 90.7133 12.54 90.7133 10.556L90.6973 7.548H88.3933V5.244H90.6973V3.036L94.4733 2.364V5.244H99.5133V7.548H94.4733V9.708C94.4733 10.7 94.9853 11.212 96.1373 11.212C97.2573 11.212 98.0893 10.812 98.9853 9.996L99.7853 12.124C98.5053 13.276 97.0813 13.756 95.0493 13.756ZM102.386 13.676C101.17 13.676 100.306 12.924 100.306 11.884C100.306 10.828 101.17 10.092 102.386 10.092C103.602 10.092 104.482 10.828 104.482 11.884C104.482 12.924 103.602 13.676 102.386 13.676ZM111.776 13.756C107.696 13.756 105.024 12.028 105.04 9.372C105.04 6.716 107.6 4.972 111.44 4.972C114.64 4.972 116.992 6.252 117.424 8.204L113.904 8.78C113.696 7.868 112.848 7.292 111.6 7.292C109.904 7.292 108.816 8.076 108.816 9.372C108.816 10.652 109.952 11.452 111.824 11.452C113.44 11.452 114.608 10.716 114.864 9.516L118.368 10.06C117.904 12.284 115.296 13.756 111.776 13.756ZM125.555 13.756C121.555 13.756 118.931 12.028 118.931 9.372C118.931 6.716 121.555 4.972 125.555 4.972C129.571 4.972 132.195 6.716 132.195 9.372C132.195 12.028 129.571 13.756 125.555 13.756ZM125.555 11.548C127.283 11.548 128.403 10.684 128.403 9.372C128.403 8.06 127.283 7.196 125.555 7.196C123.827 7.196 122.707 8.06 122.707 9.372C122.707 10.684 123.827 11.548 125.555 11.548Z" fill="white"/>
</svg>
